PathFileType	4	(X/Y/Z)	Patient4_TMGait_0pt5_02_right_32.trc.trc
DataRate	CameraRate	NumFrames	NumMarkers	Units	OrigDataRate	OrigDataStartFrame	OrigNumFrames
75.268817204301	75.268817204301	4	33	mm	75.268817204301	124	       141
Frame#	Time	Sacral			L.Shoulder			Chest			R.Shoulder			Neck			R.ASIS			L.ASIS			R.Thigh.Superior			R.Thigh.Lateral			R.Thigh.Inferior			R.Patella			L.Thigh.Superior			L.Thigh.Lateral			L.Thigh.Inferior			L.Patella			L.Shank.Superior			L.Shank.Lateral			L.Shank.Inferior			R.Shank.Superior			R.Shank.Lateral			R.Shank.Inferior			R.Heel			R.Midfoot.Superior			R.Midfoot.Lateral			R.Toe			L.Heel			L.Midfoot.Lateral			L.Midfoot.Superior			L.Toe			L.Elbow			L.Wrist			R.Elbow			R.Wrist			
		X1	Y1	Z1	X2	Y2	Z2	X3	Y3	Z3	X4	Y4	Z4	X5	Y5	Z5	X6	Y6	Z6	X7	Y7	Z7	X8	Y8	Z8	X9	Y9	Z9	X10	Y10	Z10	X11	Y11	Z11	X12	Y12	Z12	X13	Y13	Z13	X14	Y14	Z14	X15	Y15	Z15	X16	Y16	Z16	X17	Y17	Z17	X18	Y18	Z18	X19	Y19	Z19	X20	Y20	Z20	X21	Y21	Z21	X22	Y22	Z22	X23	Y23	Z23	X24	Y24	Z24	X25	Y25	Z25	X26	Y26	Z26	X27	Y27	Z27	X28	Y28	Z28	X29	Y29	Z29	X30	Y30	Z30	X31	Y31	Z31	X32	Y32	Z32	X33	Y33	Z33	

124	43.454142857143	727.763992430884	1004.298784711537	459.256356919085	943.359721191988	1429.501813402345	307.010847902744	1019.340141042633	1352.267356847850	478.338418819020	914.486204567090	1426.627320664193	641.207890060431	922.594595234365	1486.447360255201	458.257890971670	939.605809924927	934.420208203165	601.456411114301	954.941508980724	949.883992515680	327.218332011067	1008.039331679934	755.979435995200	575.067654714777	949.501121993549	634.971659947004	636.188503862368	1039.424717025278	596.029916647167	559.505978708456	1062.593479341337	510.884333276296	569.461520258315	960.740022145794	723.966389878467	360.772020457296	854.380796184712	626.531988833941	290.018930613469	908.430590518696	535.165679630592	362.902635461573	892.382150525491	465.096997430027	372.804141098875	855.668587631013	399.095652005939	360.781210430741	754.398930656692	300.818350380291	299.837288875173	774.605719480314	184.313865666639	375.243775531284	1046.185033825513	420.482622694668	578.245215150787	989.543706088085	308.007567493589	639.802992777068	1053.352163978552	220.518497515666	584.123932247266	950.993805887842	42.035120305148	555.063032545429	1117.059846758589	106.481389329842	588.836660768743	1037.006969570036	36.583954480771	626.754796726466	1241.284106457897	63.805011197116	611.346683739398	624.636407487137	38.879125113023	404.615068797259	702.212735208993	35.364541546115	327.914874814270	785.206324836921	95.002662688342	359.499276183296	914.079054218249	41.062500511209	334.951043879362	981.092173035429	1109.121168010198	131.077615917346	1233.541143285791	1067.319994679202	140.214778904973	766.032795647214	1105.893514004227	720.855045657367	761.065698756610	843.938264537237	706.906773470275	
125	43.467428571429	729.930954988253	1002.974067054859	461.543352346989	943.806477235287	1428.905574446034	309.754885959960	1020.341946670972	1351.761101649283	480.937518478845	915.278358688673	1425.444550095867	644.096758581067	923.131053331504	1485.697072515996	461.206303857125	942.165031464539	933.362970414118	603.251479956770	957.264591803379	949.253173259294	329.227867138619	1010.825482300075	754.171017377691	576.433189119472	950.560742565112	633.397043589394	636.279046266122	1040.582560306659	594.375027121929	559.886350921465	1062.121182710231	508.570766682192	569.040852858490	962.430100254130	722.690908912798	362.060001769944	855.194775488861	625.581934324827	292.012945556461	909.405176074353	533.805564202904	364.340840416437	893.356887076010	463.080757286186	374.016894291285	854.851296657243	397.730431448502	362.078275839243	751.694046815478	301.527590426386	300.783515525176	769.934667487845	184.279988359248	375.496031993219	1045.204280735567	417.996360720570	577.752529865101	987.472410654932	306.114526707121	639.168345305566	1049.629983435289	218.042316311725	582.899140311527	944.192229835383	42.096731643592	554.123586787173	1111.496888314579	103.917441104683	587.533255699079	1029.808519016872	36.544523968642	626.290946928646	1234.804612214242	59.082809118713	610.693160853628	617.977919909801	40.313860460082	404.326111247386	695.672694463682	35.970731732691	327.872001413423	779.097888721321	95.166815100498	359.313557068261	907.579723031244	40.550335431255	334.864246846601	982.720022479795	1107.853404925905	134.530733122090	1235.171080758009	1065.712067587558	144.903270464261	771.976888529072	1101.832738158785	723.911900344277	772.468326344899	839.700448935577	710.703496310953	
126	43.480714285714	732.040134247137	1001.948359354342	463.933735965116	944.232840533563	1428.559913149232	312.554797402479	1021.384180142407	1351.499041313748	483.577119418903	916.191028171077	1424.525122268596	647.072080982344	923.768744206659	1485.225588284904	464.238165555192	944.751317445845	932.640152939977	605.093869314777	959.457624011785	948.916133535718	331.291450305327	1013.729333425772	752.755797879171	577.615579331214	952.031783655493	632.303045345695	636.417557962032	1041.932338229178	593.112117428686	560.100572144276	1062.028776549165	506.589664656200	568.615802339475	964.401377852584	721.758786291613	363.307981866492	856.530848459491	624.761079915979	294.097761965886	911.312839145030	532.637548269036	365.758016867200	895.423565063135	461.113031098702	375.081675494236	854.885538417315	396.479920253741	363.313004375065	749.595725658406	302.657507282848	301.770338018383	765.737398436287	184.597525566689	375.648579330462	1044.398196609593	415.870142654531	577.218384344141	985.550826027642	304.671844139304	638.687990363043	1045.701591544481	215.867599246570	581.686162329123	936.806473385827	42.341421790253	553.394846090992	1105.375108635823	101.689844797217	586.310299931863	1022.141761171063	36.629964484223	625.892197917515	1227.853729690620	54.739810694326	609.969100789700	611.475203171458	42.605926272522	404.035775416515	689.223010281607	37.022594149564	327.826347066896	773.299950377630	95.473845639527	359.028283952182	901.102597831194	40.006886729746	334.765480915948	983.830195373024	1106.549177994382	138.296842804663	1236.202040140341	1063.080755804572	149.681445142185	778.468157880241	1097.936340979103	727.176201110374	784.992980938923	835.684539962334	715.054415779295	
127	43.494000000000	734.044842520879	1001.294925300334	466.400433522166	944.686026537633	1428.516572712702	315.383008608055	1022.461228713828	1351.512180262251	486.234940029938	917.227703123879	1423.934882753929	650.085702798866	924.526047465589	1485.077901683763	467.309564319025	947.294248468746	932.304152114797	606.998559550573	961.444566097381	948.917871053592	333.401051036243	1016.565699664082	751.761096222871	578.656378003924	953.751707662522	631.707062085638	636.699956068444	1043.276613776128	592.232901313718	560.232130305678	1062.126417135949	504.990264069364	568.290089480530	966.668261492007	721.257845308643	364.560376325532	858.532473630756	624.088503003505	296.238503144345	914.328914672950	531.717045385196	367.143732686199	898.751306976318	459.243158350349	375.948818172632	855.950282481275	395.378450880011	364.443808110665	748.274589590895	304.280969731065	302.791821890661	762.162768458100	185.346372133968	375.688681715055	1043.653665871304	414.165893875289	576.745865386306	983.757933493583	303.683855212738	638.432873110554	1041.692499939241	214.078452631547	580.596306232466	929.257136660041	42.676797407752	552.898154774598	1098.991159605336	99.904574005748	585.267881623346	1014.421937187716	36.787102071444	625.586622137903	1220.784704546493	51.040264966909	609.286696037079	605.236053599786	45.969295019472	403.766044297515	682.923210422199	38.663738715655	327.787154604691	767.916020576238	95.964657563025	358.640203520644	894.647717062900	39.450106533209	334.665225707736	984.415441822781	1105.271800800061	142.383451741672	1236.592996602562	1059.415456868457	154.520312508246	785.433606781505	1094.346398117330	730.624839608196	798.605539059656	832.100056511924	719.908395943292	
